<svg width="24" height="24" viewBox="0 0 24 24" fill="none" xmlns="http://www.w3.org/2000/svg">
<path d="M9 2.75H9.59868C10.4336 2.75 11.2616 2.90268 12.0416 3.20052L21.0892 6.65504C21.186 6.69202 21.25 6.78493 21.25 6.8886V11.1114C21.25 11.2151 21.186 11.308 21.0892 11.345L12.0416 14.7995C11.2616 15.0973 10.4336 15.25 9.59868 15.25H9C5.54822 15.25 2.75 12.4518 2.75 9C2.75 5.54822 5.54822 2.75 9 2.75Z" stroke="#777777" stroke-width="1.5"/>
<path d="M7 15V20C7 21.1046 7.89543 22 9 22V22C10.1046 22 11 21.1046 11 20V15" stroke="#777777" stroke-width="1.5"/>
<circle cx="9" cy="9" r="3" stroke="#FF003C" stroke-width="1.5"/>
</svg>
