<svg width="24" height="24" viewBox="0 0 24 24" fill="none" xmlns="http://www.w3.org/2000/svg">
<path d="M8 13H16" stroke="#FF003C" stroke-width="1.5" stroke-miterlimit="10" stroke-linecap="round" stroke-linejoin="round"/>
<path d="M5.53033 19.5303L6.06066 19L5 17.9393L4.46967 18.4697L5.53033 19.5303ZM3.46967 19.4697C3.17678 19.7626 3.17678 20.2374 3.46967 20.5303C3.76256 20.8232 4.23744 20.8232 4.53033 20.5303L3.46967 19.4697ZM4.46967 18.4697L3.46967 19.4697L4.53033 20.5303L5.53033 19.5303L4.46967 18.4697Z" fill="#777777"/>
<path d="M19.5303 18.4697L19 17.9393L17.9393 19L18.4697 19.5303L19.5303 18.4697ZM19.4697 20.5303C19.7626 20.8232 20.2374 20.8232 20.5303 20.5303C20.8232 20.2374 20.8232 19.7626 20.5303 19.4697L19.4697 20.5303ZM18.4697 19.5303L19.4697 20.5303L20.5303 19.4697L19.5303 18.4697L18.4697 19.5303Z" fill="#777777"/>
<path fill-rule="evenodd" clip-rule="evenodd" d="M6.5 9.24003C6.5 9.29031 6.49753 9.34002 6.49269 9.38903C6.49751 9.42338 6.5 9.45847 6.5 9.49414V12.9941C6.5 13.4084 6.16421 13.7441 5.75 13.7441C5.33579 13.7441 5 13.4084 5 12.9941L5 10.74H4.5C3.94772 10.74 3.5 11.1877 3.5 11.74V16.5C3.5 17.0523 3.94771 17.5 4.5 17.5H19.5C20.0523 17.5 20.5 17.0523 20.5 16.5V11.74C20.5 11.1877 20.0523 10.74 19.5 10.74H19V12.9941C19 13.4084 18.6642 13.7441 18.25 13.7441C17.8358 13.7441 17.5 13.4084 17.5 12.9941V9.49414C17.5 9.45847 17.5025 9.42338 17.5073 9.38903C17.5025 9.34002 17.5 9.29031 17.5 9.24003V6.5C17.5 5.94772 17.0523 5.5 16.5 5.5H7.5C6.94772 5.5 6.5 5.94772 6.5 6.5V9.24003ZM19.5 9.24003H19V7.74003V6.5C19 5.11929 17.8807 4 16.5 4H7.5C6.11929 4 5 5.11929 5 6.5V7.74003V9.24003H4.5C3.11929 9.24003 2 10.3593 2 11.74V16.5C2 17.8807 3.11929 19 4.5 19H19.5C20.8807 19 22 17.8807 22 16.5V11.74C22 10.3593 20.8807 9.24003 19.5 9.24003Z" fill="#777777"/>
</svg>
