<svg width="24" height="24" viewBox="0 0 24 24" fill="none" xmlns="http://www.w3.org/2000/svg">
<path d="M14.9977 5C18.8637 5 21.9977 8.13401 21.9977 12C21.9977 15.7855 18.9929 18.8691 15.2384 18.9959L14.9977 19H9.00195C5.13596 19 2.00195 15.866 2.00195 12C2.00195 8.21455 5.00674 5.1309 8.7613 5.00406L9.00195 5H14.9977ZM14.9977 6.5H9.00195C5.96439 6.5 3.50195 8.96243 3.50195 12C3.50195 14.9635 5.84573 17.3795 8.78075 17.4956L9.00195 17.5H14.9977C18.0353 17.5 20.4977 15.0376 20.4977 12C20.4977 9.03652 18.1539 6.62046 15.2189 6.50437L14.9977 6.5Z" fill="#777777"/>
<path d="M8 9C8.41421 9 8.75 9.33579 8.75 9.75L8.74912 11.248L10.25 11.2487C10.6642 11.2487 11 11.5845 11 11.9987C11 12.413 10.6642 12.7487 10.25 12.7487L8.74912 12.748L8.75 14.25C8.75 14.6642 8.41421 15 8 15C7.58579 15 7.25 14.6642 7.25 14.25L7.24912 12.748L5.75 12.7487C5.33579 12.7487 5 12.413 5 11.9987C5 11.5845 5.33579 11.2487 5.75 11.2487L7.24912 11.248L7.25 9.75C7.25 9.33579 7.58579 9 8 9ZM14.75 12.5C15.4404 12.5 16 13.0596 16 13.75C16 14.4404 15.4404 15 14.75 15C14.0596 15 13.5 14.4404 13.5 13.75C13.5 13.0596 14.0596 12.5 14.75 12.5ZM16.75 9C17.4404 9 18 9.55964 18 10.25C18 10.9404 17.4404 11.5 16.75 11.5C16.0596 11.5 15.5 10.9404 15.5 10.25C15.5 9.55964 16.0596 9 16.75 9Z" fill="#FF003C"/>
</svg>
