<svg width="24" height="24" viewBox="0 0 24 24" fill="none" xmlns="http://www.w3.org/2000/svg">
<path d="M17.7499 2.00098C18.9407 2.00098 19.9155 2.92614 19.9947 4.09693L19.9999 4.25098V19.749C19.9999 20.9399 19.0747 21.9147 17.9039 21.9939L17.7499 21.999H6.25C5.05914 21.999 4.08436 21.0739 4.00519 19.9031L4 19.749V4.25098C4 3.06011 4.92516 2.08533 6.09595 2.00617L6.25 2.00098H17.7499ZM17.7499 3.50098H6.25C5.8703 3.50098 5.55651 3.78313 5.50685 4.14921L5.5 4.25098V19.749C5.5 20.1287 5.78215 20.4425 6.14823 20.4922L6.25 20.499H17.7499C18.1296 20.499 18.4434 20.2169 18.493 19.8508L18.4999 19.749V4.25098C18.4999 3.87128 18.2177 3.55749 17.8516 3.50782L17.7499 3.50098ZM18.75 7.00001C19.1642 7.00001 19.5 7.3358 19.5 7.75001C19.5 8.12971 19.2178 8.4435 18.8518 8.49316L18.75 8.50001H5.25C4.83579 8.50001 4.5 8.16422 4.5 7.75001C4.5 7.37031 4.78215 7.05652 5.14823 7.00686L5.25 7.00001H18.75Z" fill="#777777"/>
<circle cx="12" cy="14" r="3" stroke="#FF003C" stroke-width="1.5"/>
</svg>
