<svg width="24" height="24" viewBox="0 0 24 24" fill="none" xmlns="http://www.w3.org/2000/svg">
<rect x="4.75" y="4.75" width="14.5" height="14.5" rx="2.25" stroke="#777777" stroke-width="1.5"/>
<path d="M16 4.75H17.2634L16.6584 3.64086L15.8518 2.16201C15.5451 1.5998 14.9559 1.25 14.3155 1.25H9.68454C9.04414 1.25 8.45488 1.5998 8.14822 2.16201L7.34158 3.64086L6.73659 4.75H8H16Z" stroke="#777777" stroke-width="1.5"/>
<path d="M16 19.25H17.2634L16.6584 20.3591L15.8518 21.838C15.5451 22.4002 14.9559 22.75 14.3155 22.75H9.68454C9.04414 22.75 8.45488 22.4002 8.14822 21.838L7.34158 20.3591L6.73659 19.25H8H16Z" stroke="#777777" stroke-width="1.5"/>
<path d="M7.75 15C8.16421 15 8.5 15.3358 8.5 15.75C8.5 16.1642 8.16421 16.5 7.75 16.5C7.33579 16.5 7 16.1642 7 15.75C7 15.3358 7.33579 15 7.75 15Z" fill="#FF003C"/>
<path d="M7.75 12.5C8.16421 12.5 8.5 12.8358 8.5 13.25C8.5 13.6642 8.16421 14 7.75 14C7.33579 14 7 13.6642 7 13.25C7 12.8358 7.33579 12.5 7.75 12.5Z" fill="#FF003C"/>
<path d="M12 7.5C12.3797 7.5 12.6935 7.78215 12.7432 8.14823L12.75 8.25V11.25H15C15.4142 11.25 15.75 11.5858 15.75 12C15.75 12.3797 15.4678 12.6935 15.1018 12.7432L15 12.75H12C11.6203 12.75 11.3065 12.4678 11.2568 12.1018L11.25 12L11.25 8.25C11.25 7.83579 11.5858 7.5 12 7.5Z" fill="#FF003C"/>
<path d="M7.75 10C8.16421 10 8.5 10.3358 8.5 10.75C8.5 11.1642 8.16421 11.5 7.75 11.5C7.33579 11.5 7 11.1642 7 10.75C7 10.3358 7.33579 10 7.75 10Z" fill="#FF003C"/>
</svg>
