<svg width="60" height="60" viewBox="0 0 60 60" fill="none" xmlns="http://www.w3.org/2000/svg">
    <circle cx="30" cy="30" r="30" fill="#FF003C"/>
    <path d="M30.7385 18.4203C37.5437 18.4203 43.0604 23.937 43.0604 30.7422C43.0604 37.5474 37.5437 43.0641 30.7385 43.0641C28.6802 43.0641 26.6938 42.5581 24.9211 41.6069L20.0942 43.0564C19.3857 43.2691 18.6389 42.8672 18.4262 42.1588C18.3507 41.9074 18.3508 41.6394 18.4263 41.3881L19.8761 36.5639C18.9235 34.7901 18.4167 32.8022 18.4167 30.7422C18.4167 23.937 23.9333 18.4203 30.7385 18.4203ZM30.7385 20.0275C24.821 20.0275 20.0239 24.8247 20.0239 30.7422C20.0239 32.639 20.5167 34.4622 21.4402 36.0701L21.6125 36.3702L20.1088 41.3739L25.1146 39.8708L25.4145 40.0428C27.0215 40.9649 28.8432 41.4569 30.7385 41.4569C36.6561 41.4569 41.4532 36.6598 41.4532 30.7422C41.4532 24.8247 36.6561 20.0275 30.7385 20.0275ZM26.7205 32.3494H31.5403C31.9841 32.3494 32.3439 32.7092 32.3439 33.153C32.3439 33.5598 32.0415 33.8961 31.6493 33.9493L31.5403 33.9566H26.7205C26.2767 33.9566 25.9169 33.5968 25.9169 33.153C25.9169 32.7462 26.2192 32.41 26.6115 32.3568L26.7205 32.3494H31.5403H26.7205ZM26.7205 27.5278H34.7613C35.2051 27.5278 35.5649 27.8876 35.5649 28.3314C35.5649 28.7382 35.2626 29.0745 34.8704 29.1277L34.7613 29.135H26.7205C26.2767 29.135 25.9169 28.7752 25.9169 28.3314C25.9169 27.9246 26.2192 27.5884 26.6115 27.5352L26.7205 27.5278H34.7613H26.7205Z" fill="white"/>
</svg>
